# xmcd
#
# Track frame offsets:
#	150
#	12485
#	20647
#	32230
#	45310
#	55427
#	66490
#	75237
#	86452
#	97715
#	111022
#	122715
#	134655
#	146345
#
# Disc length: 2087
#
# Revision: 3
# Processed by: cddbd v1.5.1PL0 Copyright (c) Steve Scherf et al.
# Submitted via: CDex 1.30Release
# Normalized: r1:TDELIM( - ),TSWAP
#
DISCID=b508250e
DTITLE=Various Artist - Deep In The Heart Of Country
DYEAR=1900
DGENRE=Country
TTITLE0=Johnny Cash - folsom Prison Blues
TTITLE1=Roger Miller - Dang Me
TTITLE2=Patsy Cline - Walking After Midnight
TTITLE3=Leroy Van Dyke - The Auctioneer
TTITLE4=Dave Dudley - Six Days On The Road
TTITLE5=George Jones - Tender Years
TTITLE6=Waylon Jennings - Love's Gonna Live Here Again
TTITLE7=Buck Owens - Down On The Corner Of Love
TTITLE8=Johnny Cash - Big River
TTITLE9=Bill Anderson - Your Eyes Don't Lie To Me
TTITLE10=Roger Miller - Little Green Apples
TTITLE11=Conway Twitty - You Made Me What I Am Today
TTITLE12=Jerry Wallace - There She Goes
TTITLE13=Glen Campbell - Try A Little Kindness
EXTD=ID3G:   2
EXTT0=
EXTT1=
EXTT2=
EXTT3=
EXTT4=
EXTT5=
EXTT6=
EXTT7=
EXTT8=
EXTT9=
EXTT10=
EXTT11=
EXTT12=
EXTT13=
PLAYORDER=
